# xmcd
#
# Track frame offsets: 
#        150
#        17326
#        51784
#        81801
#        127144
#        158299
#        199359
#        213153
#        241722
#        258451
#        273747
#
# Disc length: 4261 seconds
#
# Revision: 2
# Processed by: cddbd v1.5.2PL0 Copyright (c) Steve Scherf et al.
# Submitted via: ExactAudioCopy v1.0b3
#
DISCID=8f10a30b
DTITLE=Sacred Movement - White Swan Yoga Masters Vol. 1
DYEAR=2004
DGENRE=yoga
TTITLE0=Christian Bollman and The Overtone Choir - Interlude 1
TTITLE1=Hamza El Din - Greetings
TTITLE2=Prem Joshua and Manish Vyas - Ganga Pooja
TTITLE3=David Parsons - Ararat Legong
TTITLE4=Thomas Barquee - Salve Me
TTITLE5=Stellamara - Karuna
TTITLE6=B-Tribe - The Sun
TTITLE7=Stellamara - Zablejalo Mi Agance
TTITLE8=Steve Ross - Om-Invocation
TTITLE9=Bruce BecVar and Nada Shakti - Heart Sutra
TTITLE10=dj Cheb i Sabbah - Maheshvara Yogi
EXTD=
EXTT0=
EXTT1=
EXTT2=
EXTT3=
EXTT4=
EXTT5=
EXTT6=
EXTT7=
EXTT8=
EXTT9=
EXTT10=
PLAYORDER=
